<svg t="1741953051072" class="icon" viewBox="0 0 1024 1024" version="1.1" xmlns="http://www.w3.org/2000/svg" p-id="13032" width="200" height="200"><path d="M921.6 332.8h-124.8768l-190.4128-190.4128a102.4 102.4 0 1 0-188.6208 0L227.2768 332.8H102.4A102.7072 102.7072 0 0 0 0 435.2v486.4a102.7072 102.7072 0 0 0 102.4 102.4h819.2a102.7072 102.7072 0 0 0 102.4-102.4V435.2a102.7072 102.7072 0 0 0-102.4-102.4zM472.0128 196.7104a102.8608 102.8608 0 0 0 79.9744 0L688.0768 332.8H335.9232zM179.2 435.2h409.6a51.2 51.2 0 0 1 0 102.4H179.2a51.2 51.2 0 0 1 0-102.4z m665.6 486.4H179.2a51.2 51.2 0 0 1 0-102.4h665.6a51.2 51.2 0 0 1 0 102.4z m0-192H179.2a51.2 51.2 0 0 1 0-102.4h665.6a51.2 51.2 0 0 1 0 102.4z" fill="#00C080" p-id="13033"></path></svg>