<svg t="1742216328317" class="icon" viewBox="0 0 1024 1024" version="1.1" xmlns="http://www.w3.org/2000/svg" p-id="21447" width="200" height="200"><path d="M587.076267 966.792533a35.703467 35.703467 0 0 1-7.901867-0.887466 33.706667 33.706667 0 0 1-7.594667-2.7136 370.141867 370.141867 0 0 1-33.8432-16.298667 202.581333 202.581333 0 0 1-15.752533-9.728 191.249067 191.249067 0 0 1-15.36-11.690667 54.613333 54.613333 0 0 1-11.946667-19.268266 44.373333 44.373333 0 0 1-2.491733-11.008 31.488 31.488 0 0 1 0.785067-10.7008 96.648533 96.648533 0 0 0 1.3824-15.9232 107.997867 107.997867 0 0 0-1.211734-16.5888 110.404267 110.404267 0 0 0-3.822933-16.5888 104.635733 104.635733 0 0 0-6.4512-15.9232 74.8032 74.8032 0 0 0-21.896533-25.6 97.28 97.28 0 0 0-14.267734-8.96 107.246933 107.246933 0 0 0-15.2064-6.4 36.3008 36.3008 0 0 1-11.4176-4.2496 33.2288 33.2288 0 0 1-8.533333-7.168 29.764267 29.764267 0 0 1-7.304533-19.2 103.304533 103.304533 0 0 1-3.106134-18.773334c-0.597333-6.161067-0.597333-12.049067-0.597333-18.944s0-12.765867 0.443733-18.773333a103.048533 103.048533 0 0 1 3.106134-18.773333 30.0544 30.0544 0 0 1 7.202133-19.114667 33.365333 33.365333 0 0 1 8.533333-7.253333 37.410133 37.410133 0 0 1 11.537067-4.4032 90.9312 90.9312 0 0 0 61.3376-105.728 55.995733 55.995733 0 0 1-1.28-12.0832 37.6832 37.6832 0 0 1 1.706667-10.8544 33.1776 33.1776 0 0 1 4.693333-9.642667 41.301333 41.301333 0 0 1 8.533333-8.3968 193.518933 193.518933 0 0 1 15.36-11.741867c5.034667-3.413333 10.24-6.638933 15.8208-9.7792a338.7904 338.7904 0 0 1 33.774934-16.196266 33.757867 33.757867 0 0 1 7.5776-2.696534 35.310933 35.310933 0 0 1 7.850666-0.887466 36.7616 36.7616 0 0 1 7.0656 0.682666 37.137067 37.137067 0 0 1 6.826667 2.013867 36.232533 36.232533 0 0 1 6.2464 3.2768 34.5088 34.5088 0 0 1 5.4784 4.437333 90.862933 90.862933 0 0 0 61.1328 23.176534 90.794667 90.794667 0 0 0 61.764267-23.722667 34.491733 34.491733 0 0 1 5.4784-4.437333 36.266667 36.266667 0 0 1 6.263466-3.2768 37.154133 37.154133 0 0 1 6.826667-2.013867 36.744533 36.744533 0 0 1 6.997333-0.682667 35.310933 35.310933 0 0 1 7.850667 0.887467 33.757867 33.757867 0 0 1 7.560533 2.7136 353.911467 353.911467 0 0 1 33.911467 16.384c5.5808 3.140267 10.734933 6.314667 15.752533 9.728 5.358933 3.6352 10.3936 7.424 15.36 11.5712a49.493333 49.493333 0 0 1 6.826667 8.7552 53.742933 53.742933 0 0 1 5.12 10.410667 44.7488 44.7488 0 0 1 2.491733 11.076266 31.658667 31.658667 0 0 1-0.785066 10.752 100.1472 100.1472 0 0 0-1.2288 15.9232 110.933333 110.933333 0 0 0 1.297066 16.5888 112.128 112.128 0 0 0 3.857067 16.5888 105.130667 105.130667 0 0 0 6.468267 15.9232 74.8032 74.8032 0 0 0 21.896533 25.6 97.28 97.28 0 0 0 14.267733 8.96 107.229867 107.229867 0 0 0 15.2064 6.4 34.5088 34.5088 0 0 1 17.4592 11.639467 48.315733 48.315733 0 0 1 6.024534 9.147733 49.92 49.92 0 0 1 3.84 10.0864c0.887467 5.888 1.553067 12.066133 1.9968 18.3808a271.872 271.872 0 0 1-1.9968 56.746667 49.749333 49.749333 0 0 1-9.864534 18.9952 34.6624 34.6624 0 0 1-17.4592 11.605333 105.9328 105.9328 0 0 0-15.36 6.4 95.675733 95.675733 0 0 0-14.250666 8.96 74.939733 74.939733 0 0 0-21.794134 25.6 107.52 107.52 0 0 0-6.5024 15.9232 111.786667 111.786667 0 0 0-3.908266 16.5888 107.1616 107.1616 0 0 0-1.297067 16.5888 93.986133 93.986133 0 0 0 1.3312 15.9232 43.502933 43.502933 0 0 1 0.8192 12.202667 39.594667 39.594667 0 0 1-2.423467 10.8544 45.192533 45.192533 0 0 1-5.12 9.5744 59.477333 59.477333 0 0 1-7.0144 8.362667 191.146667 191.146667 0 0 1-15.36 11.690666c-5.000533 3.413333-10.154667 6.587733-15.752533 9.728a370.056533 370.056533 0 0 1-33.8432 16.298667 33.774933 33.774933 0 0 1-7.560533 2.7136 35.310933 35.310933 0 0 1-7.850667 0.887467 36.949333 36.949333 0 0 1-13.824-2.696534 36.2496 36.2496 0 0 1-6.2464-3.259733 34.5088 34.5088 0 0 1-5.4784-4.437333 86.016 86.016 0 0 0-122.6752 0.273066 32.733867 32.733867 0 0 1-5.376 4.437334 35.345067 35.345067 0 0 1-6.212267 3.2768 37.085867 37.085867 0 0 1-13.892266 2.696533z m86.698666-335.291733a78.6944 78.6944 0 1 0 78.6944 78.6944 78.779733 78.779733 0 0 0-78.6944-78.6944z" fill="#F1AAFF" p-id="21448"></path><path d="M322.56 838.417067a53.5552 53.5552 0 0 1-11.861333-1.314134 50.551467 50.551467 0 0 1-11.383467-4.061866 555.178667 555.178667 0 0 1-50.773333-24.439467 314.385067 314.385067 0 0 1-23.637334-14.574933 286.8736 286.8736 0 0 1-23.210666-17.5616 81.8176 81.8176 0 0 1-17.937067-28.893867 66.56 66.56 0 0 1-3.7376-16.520533 47.240533 47.240533 0 0 1 1.1776-16.059734 144.964267 144.964267 0 0 0 2.065067-23.893333 162.013867 162.013867 0 0 0-1.809067-24.8832 165.546667 165.546667 0 0 0-5.666133-24.866133 157.013333 157.013333 0 0 0-9.693867-23.893334A112.213333 112.213333 0 0 0 133.12 579.037867a146.005333 146.005333 0 0 0-21.4016-13.448534 160.853333 160.853333 0 0 0-22.818133-9.608533 54.459733 54.459733 0 0 1-17.066667-6.365867 49.834667 49.834667 0 0 1-12.9024-10.752 44.663467 44.663467 0 0 1-10.9568-28.791466 154.948267 154.948267 0 0 1-4.6592-28.279467c-0.648533-9.0112-0.648533-17.937067-0.648533-28.279467s0-19.165867 0.6656-28.074666a154.5728 154.5728 0 0 1 4.6592-28.074667 45.073067 45.073067 0 0 1 10.820266-28.791467 50.056533 50.056533 0 0 1 12.868267-10.922666 56.098133 56.098133 0 0 1 17.3056-6.6048 136.3968 136.3968 0 0 0 91.8016-158.600534 84.002133 84.002133 0 0 1-1.928533-18.141866 56.5248 56.5248 0 0 1 2.491733-16.298667 49.7664 49.7664 0 0 1 7.338667-14.455467 61.952 61.952 0 0 1 12.5952-12.5952 290.304 290.304 0 0 1 23.1936-17.595733c7.543467-5.12 15.36-9.949867 23.739733-14.677333a508.125867 508.125867 0 0 1 50.602667-24.285867 50.6368 50.6368 0 0 1 11.349333-4.061867 52.906667 52.906667 0 0 1 11.793067-1.314133 55.125333 55.125333 0 0 1 10.581333 1.041067 55.688533 55.688533 0 0 1 10.24 3.0208 54.3744 54.3744 0 0 1 9.3696 4.898133 51.780267 51.780267 0 0 1 8.209067 6.673067 136.311467 136.311467 0 0 0 91.784533 34.628266 136.192 136.192 0 0 0 92.586667-35.447466 51.746133 51.746133 0 0 1 8.226133-6.673067 54.391467 54.391467 0 0 1 9.3696-4.898133 55.7056 55.7056 0 0 1 10.24-3.0208 55.125333 55.125333 0 0 1 10.513067-1.041067 52.906667 52.906667 0 0 1 11.793066 1.314133 50.6368 50.6368 0 0 1 11.349334 4.061867A530.8928 530.8928 0 0 1 657.066667 98.167467c8.379733 4.7104 16.110933 9.489067 23.637333 14.609066 8.0384 5.461333 15.598933 11.144533 23.1424 17.373867a74.154667 74.154667 0 0 1 10.3424 13.124267 80.605867 80.605867 0 0 1 7.5776 15.616 67.106133 67.106133 0 0 1 3.7376 16.622933 47.479467 47.479467 0 0 1-1.1776 16.110933 150.186667 150.186667 0 0 0-1.826133 23.893334 166.434133 166.434133 0 0 0 1.928533 24.8832 168.192 168.192 0 0 0 5.768533 24.8832 157.678933 157.678933 0 0 0 9.693867 23.893333 112.213333 112.213333 0 0 0 32.785067 38.434133 146.005333 146.005333 0 0 0 21.4016 13.448534 160.836267 160.836267 0 0 0 22.818133 9.608533 51.7632 51.7632 0 0 1 26.197333 17.442133 72.482133 72.482133 0 0 1 9.028267 13.653334 74.888533 74.888533 0 0 1 5.768533 15.138133c1.314133 8.823467 2.321067 18.107733 3.003734 27.579733s0.9728 19.063467 0.9728 28.672-0.341333 19.268267-1.006934 28.689067-1.706667 18.8928-3.003733 27.818667a74.632533 74.632533 0 0 1-14.813867 28.484266 51.985067 51.985067 0 0 1-26.180266 17.425067 158.907733 158.907733 0 0 0-22.9888 9.608533 143.530667 143.530667 0 0 0-21.384534 13.448534 112.401067 112.401067 0 0 0-32.682666 38.417066 161.28 161.28 0 0 0-9.745067 23.893334 167.68 167.68 0 0 0-5.870933 24.8832 160.7168 160.7168 0 0 0-1.9456 24.8832 140.987733 140.987733 0 0 0 1.9968 23.893333 65.262933 65.262933 0 0 1 1.2288 18.312533 59.392 59.392 0 0 1-3.652267 16.264534 67.805867 67.805867 0 0 1-7.560533 14.353066 89.224533 89.224533 0 0 1-10.530134 12.544 286.890667 286.890667 0 0 1-23.108266 17.4592c-7.492267 5.12-15.223467 9.8816-23.637334 14.574934a555.2128 555.2128 0 0 1-50.773333 24.439466 50.653867 50.653867 0 0 1-11.349333 4.061867 52.906667 52.906667 0 0 1-11.793067 1.314133 55.415467 55.415467 0 0 1-20.753067-4.061866 54.3744 54.3744 0 0 1-9.3696-4.898134 51.746133 51.746133 0 0 1-8.209066-6.673066 129.024 129.024 0 0 0-184.029867 0.4096 49.1008 49.1008 0 0 1-8.072533 6.673066 53.0432 53.0432 0 0 1-9.335467 4.898134 55.637333 55.637333 0 0 1-20.821333 4.061866z m130.048-502.9376a118.033067 118.033067 0 1 0 118.033067 118.033066 118.1696 118.1696 0 0 0-118.1184-118.033066z" fill="#FF2986" opacity=".7" p-id="21449"></path></svg>